# AST/ASF file generated using VICON BodyLanguage
# -----------------------------------------------
:version 1.10
:name VICON
:units
  mass 1.0
  length 0.45
  angle deg
:documentation
   .ast/.asf automatically generated from VICON data using
   VICON BodyBuilder and BodyLanguage model FoxedUp or BRILLIANT.MOD
:root
   order TX TY TZ RX RY RZ
   axis XYZ
   position 0 0 0  
   orientation 0 0 0 
:bonedata
  begin
     id 1 
     name lhipjoint
     direction 0.624716 -0.669793 0.401383 
     length 2.38238 
     axis 0 0 0  XYZ
  end
  begin
     id 2 
     name lfemur
     direction 0.34202 -0.939693 0  
     length 6.4574  
     axis 0 0 20  XYZ
    dof rx ry rz
    limits (-160.0 20.0)
           (-70.0 70.0)
           (-60.0 70.0)
  end
  begin
     id 3 
     name ltibia
     direction 0.34202 -0.939693 0   
     length 7.68739   
     axis 0 0 20   XYZ
    dof rx
    limits (-10.0 170.0)
  end
  begin
     id 4 
     name lfoot
     direction 0.0681309 -0.187188 0.979959   
     length 2.46615   
     axis -90 7.62852e-016 20   XYZ
    dof rx rz
    limits (-45.0 90.0)
           (-70.0 20.0)
  end
  begin
     id 5 
     name ltoes
     direction 1.53566e-011 -4.21819e-011 1   
     length 1.2376   
     axis -90 7.62852e-016 20   XYZ
    dof rx
    limits (-90.0 20.0)
  end
  begin
     id 6 
     name rhipjoint
     direction -0.644473 -0.655875 0.393043   
     length 2.43293  
     axis 0 0 0  XYZ 
  end
  begin
     id 7 
     name rfemur
     direction -0.34202 -0.939693 0   
     length 6.7025   
     axis 0 0 -20   XYZ
    dof rx ry rz
    limits (-160.0 20.0)
           (-70.0 70.0)
           (-70.0 60.0)
  end
  begin
     id 8 
     name rtibia
     direction -0.34202 -0.939693 0   
     length 7.80547   
     axis 0 0 -20   XYZ
    dof rx
    limits (-10.0 170.0)
 end
 begin
     id 9 
     name rfoot
     direction -0.0756734 -0.207911 0.975216   
     length 2.40315  
     axis -90 -7.62852e-016 -20   XYZ
    dof rx rz
    limits (-45.0 90.0)
           (-20.0 70.0)
  end
  begin
     id 10 
     name rtoes
     direction -1.5353e-011 -4.21879e-011 1   
     length 1.20477   
     axis -90 -7.62852e-016 -20   XYZ
    dof rx
    limits (-90.0 20.0)
  end
  begin
     id 11 
     name lowerback
     direction 0.0160353 0.987463 -0.157037   
     length 2.18572   
     axis 0 0 0   XYZ
    dof rx ry rz
    limits (-20.0 45.0)
           (-30.0 30.0)
           (-30.0 30.0)
  end
  begin
     id 12 
     name upperback
     direction -0.00499661 0.999756 0.0215076   
     length 2.18016   
     axis 0 0 0   XYZ
    dof rx ry rz
    limits (-20.0 45.0)
           (-30.0 30.0)
           (-30.0 30.0)
  end
  begin
     id 13 
     name thorax
     direction -0.00921346 0.995333 0.0960619   
     length 2.24923   
     axis 0 0 0   XYZ
    dof rx ry rz
    limits (-20.0 45.0)
           (-30.0 30.0)
           (-30.0 30.0)
  end
  begin
     id 14 
     name lowerneck
     direction 0.0274184 0.991181 0.12965   
     length 1.70911   
     axis 0 0 0   XYZ
    dof rx ry rz
    limits (-20.0 45.0)
           (-30.0 30.0)
           (-30.0 30.0)
  end
  begin
     id 15 
     name upperneck
     direction 0.0015627 0.999959 -0.00893559   
     length 1.69312   
     axis 0 0 0   XYZ
    dof rx ry rz
    limits (-20.0 45.0)
           (-30.0 30.0)
           (-30.0 30.0)
  end
  begin
     id 16
     name head
     direction -0.00230242 0.999856 -0.0168327  
     length 1.80241  
     axis 0 0 0   XYZ
    dof rx ry rz
    limits (-20.0 45.0)
           (-30.0 30.0)
           (-30.0 30.0)
  end
  begin
     id 17 
     name lclavicle
     direction 0.955523 0.290741 -0.0494489  
     length 3.84275  
     axis 0 0 0   XYZ
    dof ry rz
    limits (-20.0 10.0)
           (0.0 20.0)
  end
  begin
     id 18 
     name lhumerus
     direction 1 -4.48967e-011 -3.18382e-028   
     length 5.17714   
     axis 180 -30 -90   XYZ
    dof rx ry rz
    limits (-60.0 90.0)
           (-90.0 90.0)
           (-90.0 90.0)
  end
  begin
     id 19
     name lradius
     direction 1 -4.48968e-011 -2.22911e-027   
     length 3.43679   
     axis 180 -30 -90   XYZ
    dof rx
    limits (-10.0 170.0)
  end
  begin
     id 20
     name lwrist
     direction 1 -4.48951e-011 -6.32245e-027   
     length 1.7184   
     axis 3.57107e-015 90 90   XYZ
    dof ry
    limits (-180.0 0.0)
 end
  begin
     id 21 
     name lhand
     direction 1 -4.48924e-011 -1.26431e-026   
     length 0.573117   
     axis 8.06912e-015 90 90   XYZ
    dof rx rz
    limits (-90.0 90.0)
           (-45.0 45.0)
  end
  begin
     id 22 
     name lfingers
     direction 1 -4.49001e-011 -2.52965e-026   
     length 0.462062   
     axis 1.61381e-014 90 90   XYZ
    dof rx
    limits (0.0 90.0)
  end
  begin
     id 23
     name lthumb
     direction 0.707107 -6.35008e-011 0.707107   
     length 0.663431   
     axis -90 45 -1.62303e-014   XYZ
    dof rx rz
    limits (-45.0 45.0)
           (-45.0 45.0)
  end
  begin
     id 24 
     name rclavicle
     direction -0.963917 0.256881 -0.0698287   
     length 3.73057  
     axis 0 0 0   XYZ 
    dof ry rz
    limits (-10.0 20.0)
           (-20.0 0.0)
  end
  begin
     id 25 
     name rhumerus
     direction -1 -4.48962e-011 -2.73982e-027  
     length 5.23908   
     axis 180 30 90   XYZ
    dof rx ry rz
    limits (-90.0 60.0)
           (-90.0 90.0)
           (-90.0 90.0)
  end
  begin
     id 26 
     name rradius
     direction -1 -4.48968e-011 -4.33218e-027   
     length 3.46485   
     axis 180 30 90   XYZ
    dof rx
    limits (-10.0 170.0)
  end
  begin
     id 27 
     name rwrist
     direction -1 -4.48989e-011 -6.32372e-027   
     length 1.73243   
     axis 3.57107e-015 -90 -90   XYZ
    dof ry
    limits (-180.0 0.0)
  end
  begin
     id 28
     name rhand
     direction -1 -4.48948e-011 -1.26448e-026   
     length 0.608752   
     axis 8.06912e-015 -90 -90   XYZ
    dof rx rz
    limits (-90.0 90.0)
           (-45.0 45.0)
  end
  begin
     id 29
     name rfingers
     direction -1 -4.48962e-011 -2.52913e-026   
     length 0.490792   
     axis 1.61381e-014 -90 -90   XYZ
    dof rx
    limits (0.0 90.0)
  end
  begin
     id 30
     name rthumb
     direction -0.707107 -6.34878e-011 0.707107   
     length 0.704682   
     axis -90 -45 1.62303e-014   XYZ
    dof rx rz
    limits (-45.0 45.0)
           (-45.0 45.0)
  end
:hierarchy
  begin
    root lhipjoint rhipjoint lowerback
    lhipjoint lfemur
    lfemur ltibia
    ltibia lfoot
    lfoot ltoes
    rhipjoint rfemur
    rfemur rtibia
    rtibia rfoot
    rfoot rtoes
    lowerback upperback
    upperback thorax
    thorax lowerneck lclavicle rclavicle
    lowerneck upperneck
    upperneck head
    lclavicle lhumerus
    lhumerus lradius
    lradius lwrist
    lwrist lhand lthumb
    lhand lfingers
    rclavicle rhumerus
    rhumerus rradius
    rradius rwrist
    rwrist rhand rthumb
    rhand rfingers
  end

#!OML:ASF G:\JayActor3\Patient Classification 1\Patient 1\Session 6\male.ASF
:FULLY-SPECIFIED
:DEGREES
1
root 49.2042 16.2704 16.5737 177.965 -46.3442 -177.156
lowerback 1.47941 -0.471492 3.17086
upperback 3.45081 -0.720808 -0.129545
thorax 2.67921 -0.312715 -1.91738
lowerneck -9.111 2.38621 4.47711
upperneck 18.0023 2.77537 -3.2979
head 7.11738 1.19789 -1.58638
rclavicle -1.62506e-014 -2.28602e-015
rhumerus -26.6534 -6.25573 -85.8422
rradius 27.35
rwrist 2.2881
rhand -19.2371 -6.49111
rfingers 7.12502
rthumb 7.07627 -36.3528
lclavicle -1.62506e-014 -2.28602e-015
lhumerus -26.3252 -0.93125 83.9886
lradius 24.9647
lwrist 16.4135
lhand -18.1944 11.1221
lfingers 7.12502
lthumb 8.08269 40.9475
rfemur -7.65193 1.30445 22.9174
rtibia 28.7021
rfoot -22.5279 -14.4033
rtoes 3.95019
lfemur 1.83027 5.44012 -15.6753
ltibia 11.8152
lfoot -11.7185 4.23666
ltoes -5.97361
2
root 49.2029 16.2701 16.5736 177.966 -46.3335 -177.192
lowerback 1.47288 -0.481586 3.13401
upperback 3.48386 -0.736259 -0.134235
thorax 2.71646 -0.320911 -1.902
lowerneck -9.13211 2.39974 4.50154
upperneck 17.9743 2.79646 -3.32831
head 7.11368 1.20774 -1.59802
rclavicle 5.40446e-014 4.37326e-015
rhumerus -26.6017 -6.17657 -85.8884
rradius 27.3863
rwrist 2.25289
rhand -19.2531 -6.20767
rfingers 7.12502
rthumb 7.06087 -36.0699
lclavicle 5.40446e-014 4.37326e-015
lhumerus -26.3035 -0.916066 84.0113
lradius 25.0073
lwrist 16.485
lhand -18.2073 10.8948
lfingers 7.12502
lthumb 8.07031 40.7207
rfemur -7.61816 1.28784 22.8868
rtibia 28.6972
rfoot -22.4753 -14.4326
rtoes 3.727
lfemur 1.84751 5.46382 -15.7051
ltibia 11.8539
lfoot -11.736 4.24268
ltoes -6.12805
3
root 49.2041 16.2699 16.5749 177.933 -46.3284 -177.139
lowerback 1.47795 -0.480399 3.16563
upperback 3.48012 -0.735051 -0.112932
thorax 2.70982 -0.319977 -1.8977
lowerneck -9.0957 2.39086 4.47757
upperneck 17.9424 2.79245 -3.34387
head 7.0965 1.20333 -1.59961
rclavicle 6.20705e-014 -1.61016e-014
rhumerus -26.5862 -6.14938 -85.8866
rradius 27.4234
rwrist 2.23466
rhand -19.26 -6.4861
rfingers 7.12502
rthumb 7.05416 -36.3486
lclavicle 6.20705e-014 -1.61016e-014
lhumerus -26.2987 -0.993349 84.0909
lradius 25.0548
lwrist 16.5717
lhand -18.2766 10.9669
lfingers 7.12502
lthumb 8.00334 40.7953
rfemur -7.63366 1.30552 22.9298
rtibia 28.6941
rfoot -22.4855 -14.4393
rtoes 3.89291
lfemur 1.8259 5.50293 -15.6642
ltibia 11.8742
lfoot -11.7167 4.22439
ltoes -6.26148
4
root 49.2032 16.27 16.5747 177.948 -46.3248 -177.175
lowerback 1.45928 -0.475851 3.14939
upperback 3.50099 -0.730252 -0.129531
thorax 2.74214 -0.317255 -1.90601
lowerneck -9.11143 2.39574 4.49819
upperneck 17.942 2.79659 -3.34846
head 7.09972 1.20644 -1.60399
rclavicle -1.49089e-014 -4.17448e-015
rhumerus -26.5804 -6.08265 -85.9315
rradius 27.4948
rwrist 2.16366
rhand -19.2728 -6.40954
rfingers 7.12502
rthumb 7.04184 -36.2724
lclavicle -1.49089e-014 -4.17448e-015
lhumerus -26.263 -1.02779 84.1081
lradius 25.0271
lwrist 16.568
lhand -18.3109 10.675
lfingers 7.12502
lthumb 7.97028 40.5047
rfemur -7.615 1.29182 22.8972
rtibia 28.693
rfoot -22.4711 -14.4362
rtoes 3.78338
lfemur 1.83521 5.52089 -15.6935
ltibia 11.8934
lfoot -11.7323 4.22861
ltoes -6.34769
5
root 49.2032 16.2701 16.5752 177.943 -46.322 -177.175
lowerback 1.45293 -0.478278 3.14465
upperback 3.51317 -0.7345 -0.126481
thorax 2.75816 -0.319362 -1.90042
lowerneck -9.11474 2.40116 4.50044
upperneck 17.9324 2.80634 -3.36111
head 7.0978 1.21039 -1.6075
rclavicle -1.94312e-014 -1.2921e-015
rhumerus -26.5619 -6.02249 -85.9574
rradius 27.5423
rwrist 2.12272
rhand -19.2834 -6.40967
rfingers 7.12502
rthumb 7.03158 -36.2729
lclavicle -1.94312e-014 -1.2921e-015
lhumerus -26.2405 -1.06052 84.1497
lradius 25.0375
lwrist 16.606
lhand -18.2878 10.59
lfingers 7.12502
lthumb 7.99259 40.4189
rfemur -7.61068 1.29676 22.8978
rtibia 28.691
rfoot -22.4585 -14.4523
rtoes 3.73204
lfemur 1.83139 5.53152 -15.6944
ltibia 11.9117
lfoot -11.7362 4.23171
ltoes -6.41866
6
root 49.2034 16.27 16.5756 177.935 -46.3201 -177.173
lowerback 1.45144 -0.480997 3.13924
upperback 3.52532 -0.739007 -0.123339
thorax 2.77141 -0.321684 -1.89431
lowerneck -9.12177 2.40724 4.50227
upperneck 17.9284 2.81659 -3.37248
head 7.09835 1.21456 -1.61048
rclavicle -5.65294e-014 1.73937e-014
rhumerus -26.5445 -5.96672 -85.9813
rradius 27.5866
rwrist 2.08632
rhand -19.2889 -6.41106
rfingers 7.12502
rthumb 7.02624 -36.2744
lclavicle -5.65294e-014 1.73937e-014
lhumerus -26.219 -1.09483 84.1919
lradius 25.0491
lwrist 16.6403
lhand -18.2323 10.537
lfingers 7.12502
lthumb 8.04614 40.3638
rfemur -7.6061 1.30602 22.8996
rtibia 28.6939
rfoot -22.4536 -14.4672
rtoes 3.69096
lfemur 1.84088 5.52946 -15.6944
ltibia 11.908
lfoot -11.7333 4.23772
ltoes -6.42867
7
root 49.2036 16.27 16.5761 177.924 -46.3208 -177.167
lowerback 1.44962 -0.485405 3.13615
upperback 3.53745 -0.745826 -0.118854
thorax 2.7847 -0.325125 -1.88814
lowerneck -9.13211 2.41462 4.5036
upperneck 17.9276 2.82838 -3.38282
head 7.10057 1.21946 -1.6129
rclavicle -3.37934e-014 9.64106e-015
rhumerus -26.5253 -5.91408 -86.0039
rradius 27.626
rwrist 2.05462
rhand -19.2965 -6.40317
rfingers 7.12502
rthumb 7.01899 -36.2668
lclavicle -3.37934e-014 9.64106e-015
lhumerus -26.1997 -1.12468 84.2338
lradius 25.0646
lwrist 16.6733
lhand -18.1668 10.4757
lfingers 7.12502
lthumb 8.10937 40.3001
rfemur -7.60302 1.31596 22.9064
rtibia 28.6962
rfoot -22.4506 -14.4839
rtoes 3.6515
lfemur 1.84422 5.51666 -15.6896
ltibia 11.9087
lfoot -11.7351 4.24165
ltoes -6.37742
8
root 49.2041 16.27 16.5766 177.914 -46.3212 -177.158
lowerback 1.44835 -0.489723 3.13304
upperback 3.5481 -0.752443 -0.113599
thorax 2.79618 -0.328501 -1.88115
lowerneck -9.14342 2.42161 4.5044
upperneck 17.9287 2.83961 -3.39307
head 7.10355 1.22403 -1.61525
rclavicle 5.25288e-014 -1.00386e-014
rhumerus -26.5058 -5.86858 -86.0237
rradius 27.6591
rwrist 2.03104
rhand -19.3014 -6.40224
rfingers 7.12502
rthumb 7.01426 -36.266
lclavicle 5.25288e-014 -1.00386e-014
lhumerus -26.1825 -1.15584 84.277
lradius 25.0871
lwrist 16.7128
lhand -18.0995 10.4375
lfingers 7.12502
lthumb 8.17426 40.2593
rfemur -7.60394 1.3288 22.9154
rtibia 28.7
rfoot -22.4542 -14.4965
rtoes 3.64325
lfemur 1.84617 5.50206 -15.6827
ltibia 11.9054
lfoot -11.7345 4.24349
ltoes -6.30159
9
root 49.2045 16.27 16.5771 177.904 -46.3232 -177.153
lowerback 1.44799 -0.494363 3.12789
upperback 3.56057 -0.759525 -0.109843
thorax 2.80899 -0.332134 -1.87456
lowerneck -9.15534 2.42796 4.50393
upperneck 17.9299 2.84965 -3.40056
head 7.10658 1.22818 -1.61659
rclavicle -5.90887e-014 1.17283e-014
rhumerus -26.4848 -5.83121 -86.0417
rradius 27.6869
rwrist 2.01321
rhand -19.3029 -6.40421
rfingers 7.12502
rthumb 7.01279 -36.268
lclavicle -5.90887e-014 1.17283e-014
lhumerus -26.1664 -1.18444 84.3188
lradius 25.1131
lwrist 16.7509
lhand -18.0705 10.3724
lfingers 7.12502
lthumb 8.20231 40.1932
rfemur -7.60162 1.33681 22.9209
rtibia 28.7042
rfoot -22.4594 -14.5054
rtoes 3.63696
lfemur 1.85142 5.49688 -15.6774
ltibia 11.9017
lfoot -11.7336 4.23721
ltoes -6.24981
10
root 49.205 16.2701 16.5775 177.9 -46.3268 -177.149
lowerback 1.44226 -0.498831 3.12176
upperback 3.57208 -0.766423 -0.107185
thorax 2.82384 -0.335618 -1.86861
lowerneck -9.16644 2.43285 4.50431
upperneck 17.9306 2.8575 -3.40761
head 7.10919 1.23139 -1.61813
rclavicle 7.72775e-015 4.07509e-015
rhumerus -26.4652 -5.79392 -86.0604
rradius 27.7139
rwrist 1.99336
rhand -19.3028 -6.41735
rfingers 7.12502
rthumb 7.01284 -36.2812
lclavicle 7.72775e-015 4.07509e-015
lhumerus -26.1522 -1.21204 84.3587
lradius 25.1461
lwrist 16.7875
lhand -18.0742 10.3284
lfingers 7.12502
lthumb 8.19869 40.1494
rfemur -7.60438 1.34202 22.9254
rtibia 28.7081
rfoot -22.4675 -14.5099
rtoes 3.65581
lfemur 1.84965 5.50264 -15.6726
ltibia 11.9004
lfoot -11.7301 4.22411
ltoes -6.23659
11
root 49.2054 16.2703 16.5779 177.899 -46.3307 -177.152
lowerback 1.43748 -0.504371 3.10797
upperback 3.58427 -0.774743 -0.10407
thorax 2.83885 -0.340035 -1.85791
lowerneck -9.178 2.43761 4.50237
upperneck 17.9319 2.86559 -3.4151
head 7.11207 1.23449 -1.61941
rclavicle 2.95692e-014 -1.10325e-014
rhumerus -26.4446 -5.75123 -86.0779
rradius 27.736
rwrist 1.97344
rhand -19.3032 -6.43328
rfingers 7.12502
rthumb 7.01252 -36.2971
lclavicle 2.95692e-014 -1.10325e-014
lhumerus -26.1373 -1.23315 84.3981
lradius 25.1844
lwrist 16.8153
lhand -18.1096 10.3254
lfingers 7.12502
lthumb 8.16459 40.1476
rfemur -7.60406 1.34208 22.9242
rtibia 28.711
rfoot -22.469 -14.5145
rtoes 3.66095
lfemur 1.849 5.521 -15.673
ltibia 11.9036
lfoot -11.7268 4.2093
ltoes -6.30376
12
root 49.206 16.2705 16.5783 177.898 -46.3353 -177.157
lowerback 1.4339 -0.510712 3.0912
upperback 3.596 -0.784074 -0.100314
thorax 2.85271 -0.345073 -1.84487
lowerneck -9.18675 2.44258 4.4983
upperneck 17.9319 2.87431 -3.42227
head 7.11403 1.23779 -1.6202
rclavicle 7.55879e-014 -1.22253e-014
rhumerus -26.4254 -5.70495 -86.0947
rradius 27.7569
rwrist 1.95197
rhand -19.2956 -6.45053
rfingers 7.12502
rthumb 7.01981 -36.3141
lclavicle 7.55879e-014 -1.22253e-014
lhumerus -26.1273 -1.23505 84.4317
lradius 25.2482
lwrist 16.7888
lhand -18.0908 10.5193
lfingers 7.12502
lthumb 8.18269 40.3409
rfemur -7.60255 1.3422 22.922
rtibia 28.7128
rfoot -22.4717 -14.5184
rtoes 3.67556
lfemur 1.8466 5.54538 -15.6745
ltibia 11.9107
lfoot -11.7226 4.19577
ltoes -6.4185
13
root 49.2064 16.2705 16.5786 177.895 -46.3395 -177.16
lowerback 1.43063 -0.517649 3.0741
upperback 3.6078 -0.794241 -0.0950562
thorax 2.86643 -0.350574 -1.83011
lowerneck -9.19379 2.44698 4.49418
upperneck 17.9326 2.88289 -3.43295
head 7.11592 1.24067 -1.62215
rclavicle -1.01057e-013 1.72943e-014
rhumerus -26.4071 -5.65586 -86.1093
rradius 27.7743
rwrist 1.93189
rhand -19.2917 -6.46906
rfingers 7.12502
rthumb 7.02357 -36.3325
lclavicle -1.01057e-013 1.72943e-014
lhumerus -26.1178 -1.22358 84.4618
lradius 25.325
lwrist 16.7191
lhand -18.0133 10.8661
lfingers 7.12502
lthumb 8.25754 40.6847
rfemur -7.59828 1.34007 22.9199
rtibia 28.7128
rfoot -22.4701 -14.5206
rtoes 3.68796
lfemur 1.84441 5.56714 -15.676
ltibia 11.9221
lfoot -11.7202 4.18695
ltoes -6.53457
14
root 49.2066 16.2703 16.5789 177.888 -46.339 -177.166
lowerback 1.43106 -0.523255 3.05744
upperback 3.62083 -0.802575 -0.0913854
thorax 2.87943 -0.355161 -1.81719
lowerneck -9.20054 2.45006 4.49112
upperneck 17.9338 2.88951 -3.44402
head 7.11789 1.24264 -1.62459
rclavicle -5.73991e-014 1.44119e-014
rhumerus -26.3911 -5.6078 -86.1243
rradius 27.7893
rwrist 1.91247
rhand -19.2881 -6.47846
rfingers 7.12502
rthumb 7.02706 -36.3418
lclavicle -5.73991e-014 1.44119e-014
lhumerus -26.109 -1.20892 84.4877
lradius 25.4103
lwrist 16.6177
lhand -17.8533 11.343
lfingers 7.12502
lthumb 8.41192 41.1555
rfemur -7.58663 1.33808 22.9156
rtibia 28.7112
rfoot -22.4655 -14.5212
rtoes 3.68629
lfemur 1.84832 5.58175 -15.6794
ltibia 11.9371
lfoot -11.7232 4.18737
ltoes -6.62469
